
<svg id="Layer_1" data-name="Layer 1" xmlns="http://www.w3.org/2000/svg" viewBox="0 0 1226 671.99">
  <defs>
    <style>
      .cls-1 {
        fill: #1b1464;
        stroke: #000;
        stroke-miterlimit: 10;
        stroke-width: 2px;
      }

      .cls-2 {
        fill: #e54b20;
        font-size: 120px;
      }

      .cls-2, .cls-3, .cls-4 {
        font-family: FiraCode-SemiBold, 'Fira Code';
        font-weight: 600;
      }

      .cls-3 {
        fill: #214ce4;
      }

      .cls-3, .cls-4 {
        font-size: 300px;
      }

      .cls-4 {
        fill: #efdb4f;
      }
    </style>
  </defs>
  <path class="cls-1" d="M1085.02,205.01l-62.03,73.79c-2.14,2.55-5.29,4.01-8.62,4.01h-120.1c-6.22,0-11.26,5.04-11.26,11.26v261.66c0,6.22,5.04,11.26,11.26,11.26h120.1c3.33,0,6.48-1.47,8.62-4.01l62.03-73.79c2.14-2.55,5.29-4.01,8.62-4.01h120.1c6.22,0,11.26-5.04,11.26-11.26V212.26c0-6.22-5.04-11.26-11.26-11.26h-120.1c-3.33,0-6.48,1.47-8.62,4.01Z"/>
  <text class="cls-3" transform="translate(1028.25 465.75)"><tspan x="0" y="0">C</tspan></text>
  <text class="cls-4" transform="translate(875.17 518.15)"><tspan x="0" y="0">J</tspan></text>
  <text class="cls-2" transform="translate(913.69 454.52)"><tspan x="0" y="0">&lt;</tspan></text>
  <text class="cls-2" transform="translate(1093.71 397.04)"><tspan x="0" y="0">&gt;</tspan></text>
</svg>